<svg width="16" height="16" viewBox="0 0 16 16" fill="none" xmlns="http://www.w3.org/2000/svg">
<path d="M0.916992 4.91699C0.916992 3.51686 0.916992 2.8168 1.18948 2.28202C1.42916 1.81161 1.81161 1.42916 2.28202 1.18948C2.8168 0.916992 3.51686 0.916992 4.91699 0.916992H6.75033V6.75033H0.916992V4.91699Z" stroke="#999999" stroke-linecap="round" stroke-linejoin="round"/>
<path d="M9.25033 0.916992H11.0837C12.4838 0.916992 13.1839 0.916992 13.7186 1.18948C14.189 1.42916 14.5715 1.81161 14.8112 2.28202C15.0837 2.8168 15.0837 3.51686 15.0837 4.91699V6.75033H9.25033V0.916992Z" stroke="#999999" stroke-linecap="round" stroke-linejoin="round"/>
<path d="M0.916992 9.25033H6.75033V15.0837H4.91699C3.51686 15.0837 2.8168 15.0837 2.28202 14.8112C1.81161 14.5715 1.42916 14.189 1.18948 13.7186C0.916992 13.1839 0.916992 12.4838 0.916992 11.0837V9.25033Z" stroke="#999999" stroke-linecap="round" stroke-linejoin="round"/>
<path d="M9.25033 9.25033H15.0837V11.0837C15.0837 12.4838 15.0837 13.1839 14.8112 13.7186C14.5715 14.189 14.189 14.5715 13.7186 14.8112C13.1839 15.0837 12.4838 15.0837 11.0837 15.0837H9.25033V9.25033Z" stroke="#999999" stroke-linecap="round" stroke-linejoin="round"/>
</svg>
