<svg width="19" height="19" viewBox="0 0 19 19" fill="none" xmlns="http://www.w3.org/2000/svg">
<path d="M4.41634 17.0009H6.33618C6.33618 17.0009 8.43014 17.8366 9.8383 17.9059C12.9432 18.0588 15.4096 16.5657 17.4073 14.2947C17.8635 13.7761 17.8558 12.9932 17.4322 12.4459C16.8861 11.7402 15.8596 11.6831 15.1749 12.2449C14.4204 12.8638 13.419 13.56 12.4649 13.8334C11.1469 14.2111 9.8383 14.2859 9.8383 14.2859C16.8425 13.8334 14.0472 8.87255 4.41634 11.5196M10.7543 3.13773C10.3582 2.03652 9.31345 1.25 8.08698 1.25C6.51998 1.25 5.24967 2.53389 5.24967 4.11765C5.24967 5.7014 6.51998 6.98529 8.08698 6.98529C8.37382 6.98529 8.65072 6.94227 8.91171 6.86227M10.7543 3.13773C9.58954 3.49479 8.74174 4.58851 8.74174 5.88235C8.74174 6.22652 8.80172 6.55652 8.91171 6.86227M10.7543 3.13773C11.0153 3.05773 11.2922 3.01471 11.579 3.01471C13.146 3.01471 14.4163 4.2986 14.4163 5.88235C14.4163 7.46611 13.146 8.75 11.579 8.75C10.3526 8.75 9.30784 7.96348 8.91171 6.86227M2.74967 17.9167C1.8292 17.9167 1.08301 17.1705 1.08301 16.25V12.0833C1.08301 11.1629 1.8292 10.4167 2.74967 10.4167C3.67015 10.4167 4.41634 11.1629 4.41634 12.0833V16.25C4.41634 17.1705 3.67015 17.9167 2.74967 17.9167Z" stroke="#999999" stroke-linecap="round" stroke-linejoin="round"/>
</svg>
